# xmcd
#
# Track frame offsets:
#	150
#	19295
#	34951
#	53321
#	70335
#	87174
#	102079
#	115345
#	131464
#	142782
#	157268
#	171176
#	180479
#	194191
#	208471
#	225611
#	241388
#
# Disc length: 3505 seconds
#
# Revision: 3
# Processed by: cddbd v1.5.2PL0 Copyright (c) Steve Scherf et al.
# Submitted via: EZCDAudioConverter 1.0.4.1
#
DISCID=f10daf11
DTITLE=Country Lince Dancing Band - Country Line Dancing [CD2]
DYEAR=1998
DGENRE=Country
TTITLE0=Malo and Cook - Dance The Night Away
TTITLE1=Goffin and King - Locomotion
TTITLE2=Gill and Wasner - Down To New Orleans
TTITLE3=Stuart and Kostas - You Can't Stop Love
TTITLE4=Sheriff - Strut Your Stuff
TTITLE5=Sanders and Nichols - I'd Rather Ride Around With You
TTITLE6=Wright and Rogers - Blame It On Texas
TTITLE7=Kostas and Montgomery - An Out Of Control Raging Fire
TTITLE8=Baker - She Lays It All On The Line
TTITLE9=Wiseman and Bruce - If I Ain't Got You
TTITLE10=Ramos and Atkins - I Brake For Brunettes
TTITLE11=Blackwell and Presley - Don't Be Cruel
TTITLE12=Samoset - Walk On
TTITLE13=Nesler - Honky Tonk Dancing Machine
TTITLE14=Gill and Nielsen - You Better Think Twice
TTITLE15=Lee and Pitts - Honky Tonk Twist
TTITLE16=Bryant and Bryant - Rocky Top
EXTD=
EXTT0=
EXTT1=
EXTT2=
EXTT3=
EXTT4=
EXTT5=
EXTT6=
EXTT7=
EXTT8=
EXTT9=
EXTT10=
EXTT11=
EXTT12=
EXTT13=
EXTT14=
EXTT15=
EXTT16=
PLAYORDER=
